<svg width="24" height="24" viewBox="0 0 24 24" fill="none" xmlns="http://www.w3.org/2000/svg">
  <path fill-rule="evenodd" clip-rule="evenodd" d="M14.18 4.64622C12.8544 3.78459 11.1456 3.78459 9.82004 4.64623L4.91002 7.83774C4.34244 8.20667 4 8.83768 4 9.51463V17.0459C4 18.1504 4.89543 19.0459 6 19.0459H6.8C7.90457 19.0459 8.8 18.1504 8.8 17.0459L8.8 14.6459C8.8 13.5413 9.69543 12.6459 10.8 12.6459H13.2C14.3046 12.6459 15.2 13.5413 15.2 14.6459V17.0459C15.2 18.1504 16.0954 19.0459 17.2 19.0459H18C19.1046 19.0459 20 18.1504 20 17.0459V9.51463C20 8.83768 19.6576 8.20667 19.09 7.83774L14.18 4.64622Z" fill="#73819C"/>
</svg>
