<svg width="24" height="24" viewBox="0 0 24 24" fill="none" xmlns="http://www.w3.org/2000/svg">
  <path fill-rule="evenodd" clip-rule="evenodd" d="M8.39986 4.20351C8.59962 3.9307 9.00693 3.9307 9.20669 4.20351L9.89087 5.13789C10.0013 5.28876 10.1868 5.36538 10.3715 5.3365L11.5192 5.15708C11.8543 5.10469 12.1432 5.39408 12.0903 5.72911L11.911 6.86357C11.8817 7.04945 11.9592 7.23607 12.1115 7.34649L13.0444 8.02241C13.32 8.22203 13.32 8.63257 13.0444 8.8322C12.785 9.02014 12.4129 8.86937 12.3011 8.56918C11.7742 7.15394 10.4051 6.14524 8.79911 6.14524C7.19182 6.14524 5.82176 7.1556 5.29578 8.57267C5.18569 8.86925 4.81829 9.01781 4.56211 8.8322C4.28659 8.63258 4.28659 8.22203 4.56211 8.02241L5.49501 7.34649C5.6474 7.23607 5.72489 7.04945 5.69552 6.86356L5.51629 5.72911C5.46336 5.39408 5.75228 5.10469 6.08739 5.15708L7.23504 5.3365C7.41979 5.36538 7.60522 5.28876 7.71569 5.13789L8.39986 4.20351ZM4 10.8982C4 10.6433 4.19173 10.4292 4.44507 10.4012L11.4092 9.63152C11.9384 9.57304 12.1803 10.272 11.7282 10.5531L9.33333 12.042L4.78572 15.2086C4.45422 15.4394 4 15.2022 4 14.7983V10.8982ZM4.5 19.9999C4.22386 19.9999 4 19.7761 4 19.4999V17.092C4 16.9206 4.08777 16.7612 4.23257 16.6695L13.6125 10.7319C14.0746 10.4394 14.6036 10.9948 14.2888 11.4421L12 14.6946L8.41603 19.7877C8.32239 19.9207 8.16985 19.9999 8.00713 19.9999H4.5ZM9.90048 19.2083C9.66294 19.5391 9.89936 19.9999 10.3066 19.9999H15.3226C15.5607 19.9999 15.7658 19.8319 15.8127 19.5985L16.7987 14.6946L17.9076 11.0177C18.0517 10.5401 17.4841 10.1692 17.1045 10.4928L14.7116 12.5331C14.6809 12.5593 14.6535 12.5891 14.6299 12.6219L9.90048 19.2083ZM17.4113 19.9999C17.0956 19.9999 16.8589 19.7109 16.9211 19.4014L17.8584 14.7399C17.8644 14.7098 17.8732 14.6803 17.8847 14.6519L19.0369 11.7864C19.2421 11.2761 20.0008 11.423 20.0008 11.973V14.6946V19.4999C20.0008 19.7761 19.7769 19.9999 19.5008 19.9999H17.4113Z" fill="#73819C"/>
</svg>
