<svg width="24" height="24" viewBox="0 0 24 24" fill="none" xmlns="http://www.w3.org/2000/svg">
  <path fill-rule="evenodd" clip-rule="evenodd" d="M8.14738 10.3516C8.26821 10.194 8.44661 10.0908 8.64344 10.0646C8.84028 10.0383 9.03949 10.0912 9.19738 10.2116L11.9874 12.3516L14.7874 10.2016C14.8642 10.13 14.9551 10.0753 15.0544 10.041C15.1537 10.0068 15.259 9.99374 15.3636 10.0028C15.4683 10.0118 15.5698 10.0427 15.6617 10.0935C15.7536 10.1443 15.8339 10.2138 15.8972 10.2976C15.9606 10.3813 16.0056 10.4775 16.0295 10.5797C16.0533 10.682 16.0554 10.7881 16.0356 10.8913C16.0158 10.9944 15.9746 11.0922 15.9146 11.1784C15.8546 11.2646 15.7772 11.3373 15.6874 11.3916L12.4474 13.8916C12.1774 14.0916 11.7974 14.0916 11.5274 13.8916L8.28738 11.4016C8.13133 11.2793 8.03005 11.1002 8.00569 10.9035C7.98132 10.7067 8.03587 10.5083 8.15738 10.3516H8.14738Z" fill="#73819C"/>
</svg>
