<svg width="18" height="18" viewBox="0 0 18 18" fill="none" xmlns="http://www.w3.org/2000/svg">
    <path fill-rule="evenodd" clip-rule="evenodd" d="M1.9165 5.99078C1.9165 4.93078 2.78317 4.06745 3.84734 4.06745H14.1523C15.2123 4.06745 16.0748 4.93078 16.0748 5.99078V8.53828C14.7057 9.38912 13.1273 9.98495 11.4657 10.2775C11.009 9.35495 10.059 8.74995 8.9915 8.74995C7.93317 8.74995 6.979 9.35245 6.509 10.27C4.85734 9.97912 3.28484 9.38578 1.9165 8.53828V5.99078ZM7.91983 1.91663H10.0715C10.6315 1.91663 11.1007 2.30079 11.2398 2.81746H6.75067C6.89067 2.30079 7.359 1.91663 7.91983 1.91663ZM6.81984 11.5841C7.1365 11.6283 7.42567 11.4333 7.50901 11.13C7.69484 10.4533 8.29067 9.99996 8.9915 9.99996C9.68484 9.99996 10.2865 10.4633 10.4548 11.1266C10.5265 11.4066 10.7782 11.5983 11.0607 11.5983C11.089 11.5983 11.1182 11.5966 11.1465 11.5925C13.2873 11.2958 15.3265 10.5383 17.0448 9.40163C17.2198 9.28496 17.3248 9.08996 17.3248 8.87996V5.99079C17.3248 4.24079 15.9015 2.81746 14.1523 2.81746H12.5048C12.349 1.60829 11.3232 0.666626 10.0715 0.666626H7.91984C6.66817 0.666626 5.64317 1.60746 5.4865 2.81746H3.84734C2.09317 2.81746 0.666504 4.24079 0.666504 5.99079V8.87996C0.666504 9.08996 0.771504 9.28579 0.947337 9.40163C2.66317 10.5333 4.694 11.2875 6.81984 11.5841ZM8.37075 11.8201V12.8984C8.37075 13.2434 8.65075 13.5234 8.99575 13.5234C9.34075 13.5234 9.62075 13.2434 9.62075 12.8984V11.8201C9.62075 11.4751 9.34075 11.1951 8.99575 11.1951C8.65075 11.1951 8.37075 11.4751 8.37075 11.8201ZM16.0903 11.8474C16.1153 11.5274 16.3762 11.2724 16.7037 11.2724C17.0478 11.2724 17.327 11.5516 17.327 11.8957C17.327 11.9011 17.3171 12.0294 17.3023 12.2199C17.2663 12.6844 17.2017 13.5184 17.1828 13.8399C17.1353 14.6216 16.832 15.4191 16.3712 15.9741C15.7295 16.7474 14.912 17.1091 13.8003 17.1116C13.2845 17.1124 11.1528 17.1132 9.02033 17.1132C6.88866 17.1132 4.75616 17.1124 4.24116 17.1116C3.12866 17.1091 2.31116 16.7474 1.6695 15.9732C1.2095 15.4191 0.90533 14.6216 0.858664 13.8399C0.839445 13.5231 0.776268 12.7085 0.739962 12.2403C0.724319 12.0386 0.713664 11.9012 0.713664 11.8957C0.713664 11.5516 0.99283 11.2724 1.337 11.2724C1.6645 11.2724 1.92533 11.5274 1.95033 11.8474C1.95033 11.8474 2.07866 13.3049 2.10616 13.7649C2.137 14.2741 2.34366 14.8282 2.632 15.1749C3.04033 15.6674 3.492 15.8599 4.24283 15.8616C5.27283 15.8632 12.767 15.8632 13.7978 15.8616C14.5495 15.8599 15.0012 15.6674 15.4087 15.1757C15.6978 14.8282 15.9045 14.2741 15.9353 13.7649C15.962 13.3049 16.0903 11.8474 16.0903 11.8474Z" fill="#868E96"/>
</svg>
