<svg width="24" height="24" viewBox="0 0 24 24" fill="none" xmlns="http://www.w3.org/2000/svg">
  <path fill-rule="evenodd" clip-rule="evenodd" d="M5 7C4.44772 7 4 7.44772 4 8C4 8.55228 4.44772 9 5 9H19C19.5523 9 20 8.55228 20 8C20 7.44772 19.5523 7 19 7H5ZM5.38743 10C4.70487 10 4.2229 10.6687 4.43874 11.3162L5.77208 15.3162C5.90819 15.7246 6.29033 16 6.72076 16H17.2792C17.7097 16 18.0918 15.7246 18.2279 15.3162L19.5613 11.3162C19.7771 10.6687 19.2951 10 18.6126 10H5.38743Z" fill="#73819C"/>
</svg>
