<svg width="18" height="18" viewBox="0 0 18 18" fill="none" xmlns="http://www.w3.org/2000/svg">
    <path fill-rule="evenodd" clip-rule="evenodd" d="M10.1857 0.667501C9.87263 0.655467 9.56141 0.76793 9.32691 0.980316C9.14017 1.14944 9.01335 1.37178 8.96398 1.61516L8.94557 1.75242L8.94137 1.87424L9.31158 7.31119C9.35773 8.0042 9.96773 8.53178 10.6776 8.49167L16.2155 8.13057C16.5396 8.10714 16.8366 7.9603 17.0452 7.72226C17.2113 7.53272 17.3112 7.2968 17.3313 7.04875L17.3332 6.88054L17.3252 6.78399C16.7522 3.33465 13.7569 0.768517 10.1857 0.667501ZM10.1759 1.87415L10.3571 1.88274C13.1764 2.05365 15.5263 4.0668 16.071 6.7779L16.0983 6.9279L10.601 7.28748C10.5732 7.28903 10.5446 7.26429 10.5424 7.23175L10.1759 1.87415ZM6.31767 3.87105C6.91817 3.78896 7.50898 4.10373 7.74797 4.63378C7.82105 4.77899 7.86498 4.93655 7.8776 5.1008L8.20138 9.67455C8.20572 9.73721 8.23541 9.7956 8.28388 9.8368C8.32024 9.86769 8.36491 9.88701 8.41485 9.89262L8.46643 9.8936L13.1116 9.61377C13.4888 9.59159 13.8586 9.72287 14.1335 9.97652C14.4084 10.2302 14.5639 10.5836 14.5618 10.9926C14.3553 14.003 12.144 16.5197 9.13237 17.172C6.12069 17.8243 3.02993 16.4561 1.54802 13.8206C1.15175 13.1412 0.884653 12.3981 0.761335 11.6457L0.72186 11.3632C0.687589 11.1517 0.669162 10.9381 0.666504 10.7329L0.669099 10.5309C0.677669 7.38783 2.88447 4.66997 5.98991 3.9369L6.20302 3.89001L6.31767 3.87105ZM6.51351 5.06508L6.44329 5.07307L6.25289 5.11608C3.7792 5.71228 2.00499 7.84189 1.90645 10.3508L1.90215 10.555C1.89622 10.7104 1.9019 10.8659 1.92064 11.0314L1.94379 11.2006C2.02658 11.9125 2.25644 12.6005 2.6241 13.231C3.84675 15.4053 6.38873 16.5305 8.86565 15.994C11.3426 15.4575 13.1612 13.3877 13.3297 10.9511C13.3297 10.9144 13.3143 10.8793 13.287 10.8542C13.2688 10.8374 13.2464 10.826 13.2227 10.8209L13.1865 10.8181L8.54902 11.0974C8.15764 11.1252 7.77106 10.9993 7.47484 10.7476C7.17862 10.4958 6.99718 10.139 6.97083 9.7583L6.64734 5.18844C6.64676 5.18087 6.64469 5.17348 6.6305 5.14412C6.6094 5.09743 6.56355 5.06773 6.51351 5.06508Z" fill="#868E96"/>
</svg>
