<svg width="16" height="18" viewBox="0 0 16 18" fill="none" xmlns="http://www.w3.org/2000/svg">
    <path fill-rule="evenodd" clip-rule="evenodd" d="M8.51358 0.666748H7.48438C6.90474 0.666748 6.349 0.89304 5.94013 1.29556C5.57772 1.65233 5.35603 2.12272 5.31329 2.62325L5.3062 2.78492C5.29829 3.31135 4.87301 3.72204 4.35101 3.72198C4.23262 3.72075 4.10967 3.69373 3.99648 3.64283L3.88545 3.58484C2.85979 3.00855 1.52623 3.36155 0.924478 4.3848L0.383408 5.25588C-0.191927 6.23382 0.0918356 7.46238 1.02057 8.09515L1.14973 8.17634C1.46807 8.35707 1.65005 8.66588 1.65005 9.00008C1.65005 9.30743 1.49592 9.59481 1.23887 9.76912L1.15112 9.82296C0.188924 10.3678 -0.190193 11.5702 0.293468 12.5704L0.364155 12.7036L0.895267 13.6021C1.17132 14.0903 1.64438 14.4581 2.20387 14.6139C2.69977 14.752 3.229 14.7138 3.69818 14.5071L3.84654 14.4345C4.09624 14.2931 4.3542 14.2592 4.59631 14.3226C4.83842 14.3861 5.04463 14.5417 5.16908 14.7549C5.23769 14.8683 5.27797 14.9853 5.29235 15.1065L5.29943 15.2295C5.29821 16.3745 6.27699 17.3334 7.48438 17.3334H8.51383C9.6539 17.3334 10.6001 16.4754 10.6927 15.3679L10.6994 15.2249C10.6988 14.9483 10.7987 14.7104 10.9774 14.5353C11.1562 14.3601 11.399 14.2623 11.6518 14.2635C11.768 14.2666 11.8957 14.2951 12.014 14.347L12.1274 14.4042C13.0844 14.9454 14.3383 14.6674 14.9842 13.7575L15.0671 13.6309L15.6167 12.7338C15.9127 12.2362 15.9928 11.6515 15.8434 11.1026C15.711 10.616 15.4074 10.1915 14.9871 9.90349L14.848 9.81616C14.6062 9.67919 14.4468 9.47573 14.3818 9.23706C14.3169 8.99838 14.3517 8.74417 14.4786 8.53073C14.5489 8.41056 14.6424 8.31055 14.7544 8.23398L14.9688 8.10198C15.8371 7.52447 16.1623 6.38774 15.7052 5.4321L15.6578 5.33903C15.6476 5.31476 15.6357 5.2911 15.6223 5.2682L15.1113 4.39948C14.5428 3.43273 13.3134 3.05756 12.2885 3.52966L12.1519 3.59874C11.907 3.73915 11.6484 3.77464 11.4049 3.7127C11.1614 3.65076 10.9531 3.49647 10.8258 3.28387C10.7605 3.17605 10.7202 3.05908 10.7059 2.93787L10.6988 2.8148C10.7167 2.29148 10.4939 1.73075 10.0821 1.31567C9.67021 0.900594 9.10443 0.66651 8.51358 0.666748ZM7.48439 1.8732H8.51384C8.77214 1.87309 9.01924 1.97532 9.1991 2.1566C9.37897 2.33788 9.47628 2.58277 9.46887 2.83549L9.47981 3.04553C9.51705 3.36661 9.61324 3.64595 9.76525 3.89688C10.0563 4.38312 10.5354 4.73796 11.0954 4.88042C11.6554 5.02288 12.2503 4.94125 12.7488 4.65354L12.8347 4.61062L12.9272 4.57433C13.3342 4.44052 13.8139 4.60987 14.0443 5.00182L14.5317 5.83113L14.5422 5.85449L14.6012 5.96578C14.7984 6.37928 14.6336 6.90233 14.2069 7.14686L14.0729 7.22951C13.7888 7.42285 13.5709 7.65604 13.4124 7.92726C13.1227 8.4143 13.0426 8.99896 13.192 9.54791C13.3279 10.047 13.6432 10.4791 14.077 10.7663L14.3039 10.9069C14.464 11.0173 14.596 11.2019 14.6536 11.4134C14.7186 11.6521 14.6837 11.9063 14.5568 12.1198L14.0198 12.9965L13.9594 13.089C13.711 13.4383 13.2207 13.5679 12.8075 13.3902L12.5442 13.2584C12.2505 13.129 11.9632 13.0649 11.6713 13.0572C11.0763 13.0543 10.5179 13.2794 10.1067 13.6822C9.69556 14.085 9.46582 14.6321 9.46863 15.2018L9.46391 15.2927C9.42507 15.752 9.0116 16.127 8.51384 16.127H7.48439C6.99223 16.127 6.58705 15.7621 6.53521 15.2935L6.51842 14.9988C6.48118 14.6777 6.38499 14.3984 6.23298 14.1475C5.95041 13.6634 5.47401 13.3039 4.91465 13.1572C4.35529 13.0105 3.7593 13.0889 3.25917 13.3748L3.16857 13.4183C2.98824 13.4971 2.7571 13.5138 2.54052 13.4534C2.29618 13.3854 2.08958 13.2248 1.96644 13.0071L1.44207 12.1208L1.39516 12.032C1.19653 11.6201 1.36145 11.097 1.78883 10.8547L1.91867 10.7748C2.52861 10.3618 2.88146 9.70387 2.88146 9.00008C2.88146 8.28587 2.51848 7.62229 1.92013 7.22592L1.70287 7.09112C1.31898 6.82896 1.19498 6.29211 1.44291 5.87054L1.98398 4.99945C2.25426 4.54021 2.83667 4.38604 3.29342 4.64246L3.45373 4.72529C3.75313 4.86085 4.04674 4.92537 4.34456 4.9284C5.49992 4.92854 6.44466 4.05914 6.53088 2.95133L6.54207 2.69725C6.55899 2.50625 6.65538 2.30172 6.81295 2.1466C6.99073 1.97159 7.23236 1.8732 7.48439 1.8732ZM8.00286 6.27658C6.46762 6.27658 5.22306 7.49592 5.22306 9.00006C5.22306 10.5042 6.46762 11.7235 8.00286 11.7235C9.5381 11.7235 10.7827 10.5042 10.7827 9.00006C10.7827 7.49592 9.5381 6.27658 8.00286 6.27658ZM8.00285 7.48303C8.858 7.48303 9.55125 8.16223 9.55125 9.00006C9.55125 9.83789 8.858 10.5171 8.00285 10.5171C7.14769 10.5171 6.45444 9.83789 6.45444 9.00006C6.45444 8.16223 7.14769 7.48303 8.00285 7.48303Z" fill="#868E96"/>
</svg>
