<svg width="18" height="18" viewBox="0 0 18 18" fill="none" xmlns="http://www.w3.org/2000/svg">
    <path fill-rule="evenodd" clip-rule="evenodd" d="M8.99984 0.666626C4.39746 0.666626 0.666504 4.39759 0.666504 8.99996C0.666504 13.6023 4.39746 17.3333 8.99984 17.3333C13.6022 17.3333 17.3332 13.6023 17.3332 8.99996C17.3332 4.39759 13.6022 0.666626 8.99984 0.666626ZM8.99984 1.87307C12.9359 1.87307 16.1267 5.06389 16.1267 8.99996C16.1267 12.936 12.9359 16.1268 8.99984 16.1268C5.06377 16.1268 1.87295 12.936 1.87295 8.99996C1.87295 5.06389 5.06377 1.87307 8.99984 1.87307ZM11.5068 5.73713L7.41352 7.01812C7.22482 7.07717 7.07705 7.22495 7.01799 7.41364L5.737 11.5069C5.59159 11.9716 6.0282 12.4082 6.49286 12.2628L10.5861 10.9818C10.7748 10.9227 10.9226 10.775 10.9817 10.5863L12.2627 6.49298C12.4081 6.02832 11.9715 5.59171 11.5068 5.73713ZM10.7669 7.23208L9.92395 9.92407L7.23196 10.767L8.07486 8.07499L10.7669 7.23208Z" fill="#868E96"/>
</svg>
