<svg width="18" height="18" viewBox="0 0 18 18" fill="none" xmlns="http://www.w3.org/2000/svg">
    <path fill-rule="evenodd" clip-rule="evenodd" d="M13.0175 2.81789C13.0175 1.62985 13.9836 0.666748 15.1753 0.666748C16.3671 0.666748 17.3332 1.62985 17.3332 2.81789C17.3332 4.00594 16.3671 4.96904 15.1753 4.96904C13.9836 4.96904 13.0175 4.00594 13.0175 2.81789ZM16.1219 2.8179C16.1219 2.29675 15.6981 1.87427 15.1753 1.87427C14.6525 1.87427 14.2288 2.29675 14.2288 2.8179C14.2288 3.33906 14.6525 3.76153 15.1753 3.76153C15.6981 3.76153 16.1219 3.33906 16.1219 2.8179ZM11.9396 6.95025C12.1445 6.68667 12.5249 6.63855 12.7893 6.84278C13.0297 7.02845 13.0914 7.35874 12.9467 7.6153L12.8971 7.68983L10.5319 10.733C10.3447 10.9738 10.0114 11.0346 9.75378 10.8882L9.67899 10.838L7.40272 9.05572L5.35913 11.7041C5.17371 11.9443 4.84259 12.007 4.58475 11.8636L4.50982 11.8144C4.26882 11.6295 4.20596 11.2995 4.34977 11.0424L4.39914 10.9677L6.81612 7.83609C7.00287 7.59414 7.33703 7.53255 7.59527 7.6792L7.67024 7.72948L9.94719 9.51297L11.9396 6.95025ZM11.6861 1.94841C11.6861 1.61496 11.415 1.34465 11.0805 1.34465H5.21175L5.02261 1.3478C2.39584 1.43577 0.666504 3.35894 0.666504 6.08952V12.5959L0.669401 12.7902C0.75036 15.4899 2.52225 17.3334 5.21175 17.3334H12.1597L12.3489 17.3303C14.9766 17.2426 16.7049 15.3252 16.7049 12.5959V6.92953L16.6994 6.8476C16.6593 6.55291 16.4059 6.32577 16.0993 6.32577C15.7648 6.32577 15.4936 6.59608 15.4936 6.92953V12.5959L15.4903 12.7833C15.4171 14.8224 14.1436 16.1259 12.1597 16.1259H5.21175L5.03184 16.1224C3.07569 16.0445 1.87777 14.691 1.87777 12.5959V6.08952L1.88111 5.90195C1.9544 3.86073 3.22956 2.55217 5.21175 2.55217H11.0805L11.1627 2.54666C11.4583 2.50668 11.6861 2.25407 11.6861 1.94841Z" fill="#868E96"/>
</svg>
