<svg width="16" height="18" viewBox="0 0 16 18" fill="none" xmlns="http://www.w3.org/2000/svg">
    <path fill-rule="evenodd" clip-rule="evenodd" d="M4.78118 17.3334C4.43784 17.3334 4.11201 17.3067 3.80535 17.2542L3.62368 17.2201C1.64785 16.8092 0.499512 15.2959 0.499512 12.9926V5.00758C0.499512 4.72925 0.516178 4.46258 0.549512 4.20758C0.840345 1.97008 2.37784 0.666748 4.78118 0.666748H11.2187C13.882 0.666748 15.4745 2.26675 15.4995 4.94341V5.00758V12.9926C15.4995 15.7067 13.9028 17.3334 11.2187 17.3334H4.78118ZM4.78118 1.88091C2.73451 1.88091 1.69701 2.93341 1.69701 5.00758V12.9926C1.69701 15.0667 2.73451 16.1192 4.78118 16.1192H11.2112C13.257 16.1192 14.2878 15.0667 14.2878 12.9926V5.00758C14.2878 2.93341 13.257 1.88091 11.2112 1.88091H4.78118ZM11.5879 12.5284C11.5879 12.1951 11.322 11.9251 10.9937 11.9251H4.98452C4.65618 11.9251 4.38952 12.1951 4.38952 12.5284C4.38952 12.8617 4.65618 13.1317 4.98452 13.1317H10.9937C11.322 13.1317 11.5879 12.8617 11.5879 12.5284ZM10.9937 8.39257C11.2228 8.36757 11.447 8.47757 11.5695 8.67507C11.692 8.87424 11.692 9.1259 11.5695 9.32507C11.447 9.52257 11.2228 9.63257 10.9937 9.60757H4.98451C4.67951 9.57257 4.44868 9.31174 4.44868 9.00007C4.44868 8.6884 4.67951 8.42674 4.98451 8.39257H10.9937ZM7.81367 5.47592C7.81367 5.16425 7.58283 4.90258 7.27783 4.86842H4.992C4.68617 4.90258 4.45533 5.16425 4.45533 5.47592C4.45533 5.78675 4.68617 6.04842 4.992 6.08258H7.27783C7.58283 6.04842 7.81367 5.78675 7.81367 5.47592Z" fill="#868E96"/>
</svg>
