<svg width="18" height="18" viewBox="0 0 18 18" fill="none" xmlns="http://www.w3.org/2000/svg">
  <path opacity="0.4" d="M12.617 0.666504H5.39199C2.56699 0.666504 0.666992 2.64984 0.666992 5.59984V12.4082C0.666992 15.3498 2.56699 17.3332 5.39199 17.3332H12.617C15.442 17.3332 17.3337 15.3498 17.3337 12.4082V5.59984C17.3337 2.64984 15.442 0.666504 12.617 0.666504" fill="#DF3D3D"/>
  <path d="M11.5129 10.4752L10.0304 8.99351L11.5121 7.51184C11.7971 7.22767 11.7971 6.76517 11.5121 6.48101C11.2271 6.19434 10.7663 6.19517 10.4813 6.48017L8.99878 7.96184L7.51628 6.47851C7.23128 6.19351 6.76961 6.19517 6.48461 6.47851C6.20044 6.76351 6.20044 7.22601 6.48461 7.51017L7.96794 8.99351L6.48794 10.4727C6.20294 10.7577 6.20294 11.2202 6.48794 11.5035C6.63044 11.6468 6.81628 11.7177 7.00294 11.7177C7.19044 11.7177 7.37628 11.6468 7.51878 11.5043L8.99878 10.0243L10.4821 11.5068C10.6246 11.6493 10.8104 11.7202 10.9971 11.7202C11.1838 11.7202 11.3704 11.6485 11.5129 11.5068C11.7979 11.2218 11.7979 10.7602 11.5129 10.4752Z" fill="#DF3D3D"/>
</svg>
