<svg width="24" height="24" viewBox="0 0 24 24" fill="none" xmlns="http://www.w3.org/2000/svg">
  <path fill-rule="evenodd" clip-rule="evenodd" d="M8.19502 8.32956C7.9214 8.41507 7.69764 8.61388 7.58054 8.87554L4.63038 15.4673C4.3343 16.1288 4.81836 16.8758 5.54314 16.8758H19C19.5523 16.8758 20 16.4281 20 15.8758V6.0007C20 5.32606 19.3457 4.84499 18.7017 5.04622L8.19502 8.32956ZM4.94118 17.817C4.42138 17.817 4 18.2384 4 18.7582C4 19.278 4.42138 19.6993 4.94118 19.6993H19.0588C19.5786 19.6993 20 19.278 20 18.7582C20 18.2384 19.5786 17.817 19.0588 17.817H4.94118Z" fill="#73819C"/>
</svg>
