<svg width="24" height="24" viewBox="0 0 24 24" fill="none" xmlns="http://www.w3.org/2000/svg">
  <path fill-rule="evenodd" clip-rule="evenodd" d="M14.18 4.64622C12.8544 3.78459 11.1456 3.78459 9.82004 4.64623L4.91002 7.83774C4.34244 8.20667 4 8.83768 4 9.51463V17.0459C4 18.1504 4.89543 19.0459 6 19.0459C6.22091 19.0459 6.4 18.8668 6.4 18.6459V15.4459C6.4 14.3413 7.29543 13.4459 8.4 13.4459H15.6C16.7046 13.4459 17.6 14.3413 17.6 15.4459V18.6459C17.6 18.8668 17.7791 19.0459 18 19.0459C19.1046 19.0459 20 18.1504 20 17.0459V9.51463C20 8.83768 19.6576 8.20667 19.09 7.83774L14.18 4.64622ZM6.40156 11.0459C6.40156 10.604 6.75973 10.2459 7.20156 10.2459H16.8016C17.2434 10.2459 17.6016 10.604 17.6016 11.0459C17.6016 11.4877 17.2434 11.8459 16.8016 11.8459H7.20156C6.75973 11.8459 6.40156 11.4877 6.40156 11.0459Z" fill="#73819C"/>
</svg>
