<svg width="24" height="24" viewBox="0 0 24 24" fill="none" xmlns="http://www.w3.org/2000/svg">
  <path fill-rule="evenodd" clip-rule="evenodd" d="M8.16618 22H16.8328C20.2231 22 22.5 19.6219 22.5 16.0833V7.91672C22.5 4.37811 20.2231 2 16.8338 2H8.16618C4.7769 2 2.5 4.37811 2.5 7.91672V16.0833C2.5 19.6219 4.7769 22 8.16618 22ZM8.99886 11C7.62021 11 6.5 9.87827 6.5 8.5C6.5 7.12173 7.62021 6 8.99886 6C10.3765 6 11.4977 7.12173 11.4977 8.5C11.4977 9.87827 10.3765 11 8.99886 11ZM20.3208 14.934C20.6557 15.7926 20.4817 16.8246 20.1237 17.6749C19.6994 18.6863 18.8869 19.452 17.8632 19.7864C17.4087 19.935 16.932 20 16.4564 20H8.02864C7.18999 20 6.44788 19.7988 5.8395 19.4241C5.45839 19.1889 5.39102 18.646 5.67358 18.2941C6.1462 17.7059 6.61279 17.1156 7.0834 16.5201C7.98038 15.3808 8.58473 15.0506 9.25645 15.3406C9.52896 15.4603 9.80248 15.6398 10.084 15.8297C10.8342 16.3395 11.877 17.0402 13.2506 16.2797C14.1906 15.7532 14.7358 14.8501 15.2106 14.0637L15.2185 14.0506C15.2522 13.9954 15.2855 13.9402 15.3187 13.8852C15.4783 13.6212 15.6357 13.3607 15.8138 13.1207C16.0371 12.8204 16.8646 11.8813 17.9366 12.5501C18.6194 12.9711 19.1936 13.5408 19.808 14.1507C20.0423 14.3839 20.2092 14.6491 20.3208 14.934Z" fill="#00B1B9"/>
</svg>
