<svg width="24" height="24" viewBox="0 0 24 24" fill="none" xmlns="http://www.w3.org/2000/svg">
  <path fill-rule="evenodd" clip-rule="evenodd" d="M10.6716 5.30664C10.3321 5.48437 9.9154 5.74464 9.74565 5.88486C9.5759 6.02528 8.94238 6.18467 8.33766 6.23888C6.78399 6.37869 6.01179 7.15318 5.88216 8.70255C5.79019 9.79967 5.7978 9.81802 6.40087 9.94927C7.2953 10.1439 8.11174 11.0857 8.2461 12.0779L8.35947 12.916H12.009H15.6585L15.7719 12.0779C15.9062 11.0857 16.7227 10.1439 17.6171 9.94927C18.2201 9.81802 18.2278 9.79967 18.1358 8.70255C18.0062 7.15318 17.234 6.37869 15.6803 6.23888C15.0756 6.18467 14.442 6.02488 14.2723 5.88404C13.1707 4.96995 11.7503 4.74209 10.6716 5.30664ZM4.39598 11.4893C3.91431 11.9664 3.87274 12.4629 4.26759 13.0234C4.42355 13.2445 4.58836 14.0873 4.63404 14.8962C4.70729 16.1918 4.79001 16.4425 5.32827 16.9995C5.74369 17.4296 5.93916 17.8392 5.93916 18.2801C5.93916 18.792 6.03401 18.9418 6.39017 18.992C6.71938 19.0385 6.92946 18.8868 7.16711 18.4315L7.49282 17.8074H12.009H16.5251L16.8508 18.4315C17.0885 18.8868 17.2986 19.0385 17.6278 18.992C17.9839 18.9418 18.0788 18.792 18.0788 18.2801C18.0788 17.8392 18.2743 17.4296 18.6897 16.9995C19.2279 16.4425 19.3107 16.1918 19.3839 14.8962C19.4296 14.0873 19.5944 13.2445 19.7504 13.0234C20.3944 12.1091 19.7277 11.0816 18.4903 11.0816C17.3996 11.0816 16.9471 11.6495 16.9471 13.0179V14.1388H12.009H7.07082V13.0179C7.07082 11.6495 6.61836 11.0816 5.52764 11.0816C5.08177 11.0816 4.65071 11.237 4.39598 11.4893Z" fill="#73819C"/>
</svg>
