<svg width="16" height="18" viewBox="0 0 16 18" fill="none" xmlns="http://www.w3.org/2000/svg">
    <path fill-rule="evenodd" clip-rule="evenodd" d="M0.917192 10.4893V10.3068C0.943963 9.76686 1.117 9.24373 1.41847 8.79133C1.92026 8.24787 2.26376 7.58191 2.41293 6.8633C2.41293 6.30791 2.41293 5.74458 2.46144 5.18918C2.71208 2.51534 5.3559 0.666656 7.96738 0.666656H8.03207C10.6435 0.666656 13.2874 2.51534 13.5461 5.18918C13.5946 5.74458 13.5461 6.30791 13.5865 6.8633C13.7377 7.58358 14.0809 8.25161 14.581 8.79926C14.8847 9.24766 15.058 9.76887 15.0823 10.3068V10.4813C15.1003 11.2067 14.8505 11.914 14.3789 12.4728C13.7556 13.1262 12.9099 13.5327 12.0018 13.6153C9.339 13.901 6.65237 13.901 3.98952 13.6153C3.08246 13.5291 2.23797 13.1232 1.61251 12.4728C1.14817 11.9136 0.901704 11.2105 0.917192 10.4893Z" stroke="#73819C" stroke-width="1.2" stroke-linecap="round" stroke-linejoin="round"/>
    <path d="M5.9624 16.3765C6.37846 16.8987 6.98945 17.2367 7.66015 17.3156C8.33084 17.3945 9.00593 17.2079 9.53601 16.797C9.69904 16.6755 9.84574 16.5342 9.9726 16.3765" stroke="#73819C" stroke-width="1.2" stroke-linecap="round" stroke-linejoin="round"/>
</svg>
