<svg width="16" height="16" viewBox="0 0 16 16" fill="none" xmlns="http://www.w3.org/2000/svg">
  <path d="M7.96719 9.69531C5.6672 9.69531 3.72656 10.0711 3.72656 11.5216C3.72656 12.9727 5.67973 13.3354 7.96719 13.3354C10.2672 13.3354 12.2078 12.9595 12.2078 11.509C12.2078 10.0579 10.2546 9.69531 7.96719 9.69531Z" fill="#00B1B9"/>
  <path opacity="0.4" d="M7.96635 8.31265C9.52375 8.31265 10.7725 7.05668 10.7725 5.49031C10.7725 3.92334 9.52375 2.66797 7.96635 2.66797C6.40894 2.66797 5.16016 3.92334 5.16016 5.49031C5.16016 7.05668 6.40894 8.31265 7.96635 8.31265Z" fill="#00B1B9"/>
  <path opacity="0.4" d="M14.059 6.14908C14.462 4.5641 13.2806 3.14062 11.7764 3.14062C11.6128 3.14062 11.4564 3.15864 11.3036 3.18926C11.2833 3.19406 11.2606 3.20426 11.2487 3.22228C11.2349 3.24509 11.2451 3.27571 11.26 3.29552C11.7119 3.93311 11.9716 4.70939 11.9716 5.54271C11.9716 6.3412 11.7334 7.08566 11.3155 7.70344C11.2725 7.76708 11.3107 7.85293 11.3866 7.86614C11.4916 7.88475 11.5991 7.89436 11.7089 7.89736C12.8043 7.92618 13.7874 7.21714 14.059 6.14908Z" fill="#00B1B9"/>
  <path d="M15.2063 9.88025C15.0057 9.45038 14.5216 9.1556 13.7856 9.01091C13.4382 8.92566 12.498 8.80559 11.6235 8.8218C11.6103 8.8236 11.6032 8.8326 11.602 8.83861C11.6002 8.84701 11.6038 8.86142 11.6211 8.87043C12.0252 9.07155 13.5874 9.94629 13.391 11.7912C13.3826 11.8711 13.4465 11.9401 13.5259 11.9281C13.9103 11.8729 14.8994 11.6591 15.2063 10.9933C15.3758 10.6415 15.3758 10.2327 15.2063 9.88025Z" fill="#00B1B9"/>
  <path opacity="0.4" d="M4.69802 3.18926C4.5458 3.15804 4.38881 3.14062 4.22525 3.14062C2.72097 3.14062 1.53964 4.5641 1.94316 6.14908C2.21417 7.21714 3.19732 7.92618 4.2927 7.89736C4.40254 7.89436 4.51058 7.88415 4.61505 7.86614C4.69086 7.85293 4.72906 7.76708 4.68608 7.70344C4.26823 7.08506 4.03005 6.3412 4.03005 5.54271C4.03005 4.70879 4.29031 3.93251 4.74219 3.29552C4.75652 3.27571 4.76726 3.24509 4.75294 3.22228C4.741 3.20366 4.71891 3.19406 4.69802 3.18926Z" fill="#00B1B9"/>
  <path d="M2.21567 9.01042C1.47965 9.15511 0.996134 9.44989 0.795564 9.87976C0.625437 10.2322 0.625437 10.641 0.795564 10.9934C1.10239 11.6587 2.09151 11.873 2.47594 11.9276C2.55533 11.9396 2.6186 11.8712 2.61025 11.7907C2.41385 9.9464 3.97603 9.07166 4.38076 8.87053C4.39747 8.86093 4.40105 8.84712 4.39926 8.83811C4.39807 8.83211 4.3915 8.8231 4.37837 8.8219C3.50326 8.80509 2.56369 8.92517 2.21567 9.01042Z" fill="#00B1B9"/>
</svg>
