<svg width="16" height="16" viewBox="0 0 16 16" fill="none" xmlns="http://www.w3.org/2000/svg">
  <path opacity="0.4" d="M3.14737 14.111C3.1387 14.111 3.1307 14.111 3.12137 14.1103C2.91137 14.0997 2.70537 14.0543 2.50937 13.975C1.5447 13.583 1.07937 12.481 1.4707 11.517L6.35137 2.96634C6.51937 2.66234 6.77403 2.40768 7.0847 2.23568C7.9947 1.73168 9.14537 2.06301 9.6487 2.97234L14.4974 11.4577C14.6054 11.7117 14.6514 11.9183 14.6627 12.129C14.6887 12.633 14.5167 13.1163 14.1794 13.4903C13.842 13.8643 13.3787 14.085 12.8754 14.1103L3.19537 14.111H3.14737Z" fill="#DF3D3D"/>
  <path fill-rule="evenodd" clip-rule="evenodd" d="M7.41797 6.68099C7.41797 6.35966 7.67997 6.09766 8.0013 6.09766C8.32264 6.09766 8.58464 6.35966 8.58464 6.68099V8.56632C8.58464 8.88832 8.32264 9.14966 8.0013 9.14966C7.67997 9.14966 7.41797 8.88832 7.41797 8.56632V6.68099ZM7.41797 10.8471C7.41797 10.5237 7.67997 10.2604 8.0013 10.2604C8.32264 10.2604 8.58464 10.5204 8.58464 10.8397C8.58464 11.1684 8.32264 11.4304 8.0013 11.4304C7.67997 11.4304 7.41797 11.1684 7.41797 10.8471Z" fill="#DF3D3D"/>
</svg>
