<svg width="16" height="16" viewBox="0 0 16 16" fill="none" xmlns="http://www.w3.org/2000/svg">
  <path fill-rule="evenodd" clip-rule="evenodd" d="M10.1606 3.15577C10.1606 4.63643 11.3626 5.83675 12.8455 5.83675C13.0087 5.83594 13.1716 5.82027 13.332 5.78992V11.105C13.332 13.3411 12.013 14.6641 9.77365 14.6641H4.89627C2.65103 14.6641 1.33203 13.3411 1.33203 11.105V6.23479C1.33203 3.9987 2.65103 2.66406 4.89627 2.66406H10.2075C10.1759 2.82607 10.1602 2.99074 10.1606 3.15577ZM8.76535 9.92845L10.6706 7.46992V7.45821C10.8337 7.23904 10.7921 6.92999 10.5768 6.76162C10.4726 6.68119 10.3402 6.64637 10.2098 6.66512C10.0794 6.68387 9.96226 6.7546 9.88504 6.86114L8.27878 8.92748L6.44976 7.48748C6.34534 7.40612 6.2125 7.37021 6.08124 7.38783C5.94997 7.40545 5.83135 7.47513 5.75216 7.58114L3.78245 10.1216C3.71321 10.2079 3.67594 10.3154 3.67693 10.426C3.6655 10.6495 3.80661 10.8525 4.02028 10.9199C4.23395 10.9874 4.46628 10.9023 4.58557 10.7128L6.23286 8.58211L8.06188 10.0163C8.16591 10.1001 8.29962 10.1381 8.4323 10.1216C8.56497 10.105 8.68519 10.0353 8.76535 9.92845Z" fill="#00B1B9"/>
  <ellipse opacity="0.4" cx="12.9987" cy="2.9987" rx="1.66667" ry="1.66667" fill="#00B1B9"/>
</svg>
