<svg width="20" height="20" viewBox="0 0 20 20" fill="none" xmlns="http://www.w3.org/2000/svg">
    <path fill-rule="evenodd" clip-rule="evenodd" d="M3.66559 3.66552C5.28606 2.04507 7.5265 1.04169 10.0001 1.04169C12.4737 1.04169 14.7141 2.04507 16.3346 3.66552L15.8926 4.10746L16.3346 3.66552C17.955 5.286 18.9584 7.52643 18.9584 10C18.9584 12.4736 17.955 14.714 16.3346 16.3345C14.7141 17.955 12.4737 18.9584 10.0001 18.9584C7.5265 18.9584 5.28606 17.955 3.66558 16.3345L4.10752 15.8926L3.66558 16.3345C2.04513 14.714 1.04175 12.4736 1.04175 10C1.04175 7.52644 2.04513 5.286 3.66558 3.66552L3.66559 3.66552ZM10.0001 2.29169C7.87133 2.29169 5.9451 3.15379 4.54946 4.54941C3.15384 5.94505 2.29175 7.87127 2.29175 10C2.29175 12.1288 3.15385 14.055 4.54947 15.4506C5.94511 16.8462 7.87134 17.7084 10.0001 17.7084C12.1288 17.7084 14.0551 16.8462 15.4507 15.4506C16.8463 14.055 17.7084 12.1288 17.7084 10C17.7084 7.87127 16.8463 5.94504 15.4507 4.54941C14.0551 3.15379 12.1288 2.29169 10.0001 2.29169Z" fill="#73819C"/>
    <path fill-rule="evenodd" clip-rule="evenodd" d="M6.875 7.76038C6.875 6.03449 8.27411 4.63538 10 4.63538C11.7259 4.63538 13.125 6.03449 13.125 7.76038C13.125 9.27222 12.0514 10.5333 10.625 10.8229V11.927C10.625 12.2722 10.3452 12.552 10 12.552C9.65482 12.552 9.375 12.2722 9.375 11.927V10.2604C9.375 9.9152 9.65482 9.63538 10 9.63538C11.0355 9.63538 11.875 8.79591 11.875 7.76038C11.875 6.72485 11.0355 5.88538 10 5.88538C8.96447 5.88538 8.125 6.72485 8.125 7.76038C8.125 8.10555 7.84518 8.38538 7.5 8.38538C7.15482 8.38538 6.875 8.10555 6.875 7.76038Z" fill="#73819C"/>
    <path fill-rule="evenodd" clip-rule="evenodd" d="M9.95825 15.5937C10.5105 15.5937 10.9583 15.146 10.9583 14.5937C10.9583 14.0414 10.5105 13.5937 9.95825 13.5937C9.40597 13.5937 8.95825 14.0414 8.95825 14.5937C8.95825 15.146 9.40597 15.5937 9.95825 15.5937Z" fill="#73819C"/>
</svg>
