<svg width="20" height="20" viewBox="0 0 20 20" fill="none" xmlns="http://www.w3.org/2000/svg">
    <path fill-rule="evenodd" clip-rule="evenodd" d="M0 10C0 4.481 4.48 0 10 0C15.53 0 20 4.481 20 10C20 15.521 15.53 20 10 20C4.48 20 0 15.521 0 10ZM10.094 11.959C10.4419 11.959 10.724 11.6769 10.724 11.329C10.724 10.9556 10.808 10.6663 10.976 10.461C11.0413 10.3863 11.1253 10.2976 11.228 10.195C11.34 10.083 11.4707 9.95698 11.62 9.81698C11.7787 9.66764 11.9047 9.54631 11.998 9.45298C12.0913 9.35964 12.2267 9.20098 12.404 8.97698C12.712 8.60364 12.866 8.13698 12.866 7.57698C12.866 6.76498 12.6047 6.13498 12.082 5.68698C11.5593 5.22964 10.8827 5.00098 10.052 5.00098C9.22133 5.00098 8.526 5.23898 7.966 5.71498C7.63525 5.99527 7.38699 6.34123 7.22123 6.75285C7.03449 7.21657 7.43759 7.66098 7.9375 7.66098C8.36724 7.66098 8.69305 7.30343 8.95002 6.95899C8.99446 6.89942 9.04445 6.84408 9.1 6.79298C9.34267 6.56898 9.64133 6.45698 9.996 6.45698C10.3507 6.45698 10.64 6.57364 10.864 6.80698C11.088 7.03098 11.2 7.31564 11.2 7.66098C11.2 8.00631 11.0927 8.29564 10.878 8.52898L9.856 9.55098C9.55733 9.84964 9.36133 10.0923 9.268 10.279C9.184 10.4563 9.142 10.7316 9.142 11.105V11.168C9.142 11.6048 9.49614 11.959 9.933 11.959H10.094ZM9.198 14.773C9.41267 14.969 9.66467 15.067 9.954 15.067C10.2527 15.067 10.5047 14.9643 10.71 14.759C10.9247 14.5536 11.032 14.311 11.032 14.031C11.032 13.7416 10.9247 13.499 10.71 13.303C10.4953 13.0976 10.2387 12.995 9.94 12.995C9.65067 12.995 9.39867 13.0976 9.184 13.303C8.97867 13.5083 8.876 13.7556 8.876 14.045C8.876 14.325 8.98333 14.5676 9.198 14.773Z" fill="#73819C"/>
</svg>
