<svg width="17" height="17" viewBox="0 0 17 17" fill="none" xmlns="http://www.w3.org/2000/svg">
  <path d="M0.408362 12.2702L0.399892 16.0131C0.399394 16.2946 0.647994 16.5432 0.929973 16.5432L4.67293 16.5347C4.96487 16.5337 5.20101 16.2966 5.20002 16.0046C5.19902 15.7127 4.96288 15.4766 4.67043 15.4771L2.20735 15.482L5.37339 12.316C5.58014 12.1092 5.57964 11.775 5.37339 11.5687C5.16714 11.3624 4.83285 11.362 4.6261 11.5687L1.46005 14.7347L1.46554 12.2722C1.46554 12.1257 1.40625 11.9937 1.3101 11.8975C1.21494 11.8024 1.08292 11.7431 0.937945 11.7426C0.6465 11.7421 0.409358 11.9782 0.408362 12.2702Z" fill="white"/>
  <path d="M16.9315 4.66734L16.94 0.924383C16.9405 0.642902 16.6918 0.394302 16.4099 0.394302L12.6669 0.402772C12.375 0.403768 12.1388 0.64091 12.1398 0.932853C12.1408 1.2248 12.377 1.46094 12.6694 1.46044L15.1325 1.45546L11.9665 4.6215C11.7597 4.82825 11.7602 5.16254 11.9665 5.3688C12.1727 5.57505 12.507 5.57555 12.7137 5.3688L15.8798 2.20276L15.8743 4.66534C15.8743 4.81181 15.9336 4.94383 16.0297 5.03999C16.1249 5.13514 16.2569 5.19443 16.4019 5.19493C16.6933 5.19542 16.9305 4.95928 16.9315 4.66734Z" fill="white"/>
</svg>
