<svg width="18" height="18" viewBox="0 0 18 18" fill="none" xmlns="http://www.w3.org/2000/svg">
  <path fill-rule="evenodd" clip-rule="evenodd" d="M17 18H1C0.447715 18 0 17.5523 0 17V1C0 0.447716 0.447715 0 1 0H13.0546C13.3381 0 13.6083 0.120321 13.7979 0.331036L17.7433 4.71477C17.9086 4.8984 18 5.13669 18 5.38374V17C18 17.5523 17.5523 18 17 18ZM3.5 11.7143C3.5 11.3198 3.99249 11 4.6 11H13.4C14.0075 11 14.5 11.3198 14.5 11.7143V16H3.5V11.7143ZM6 3C5.44772 3 5 3.44772 5 4C5 4.55228 5.44772 5 6 5H12C12.5523 5 13 4.55228 13 4C13 3.44772 12.5523 3 12 3H6ZM4.5007 12.318C4.50033 12.3587 4.5 12.3952 4.5 12.5V15H13.5V12.5V12H4.50168C4.50168 12.209 4.50116 12.2668 4.5007 12.318Z" fill="#00B1B9"/>
</svg>
