<svg width="24" height="24" viewBox="0 0 24 24" fill="none" xmlns="http://www.w3.org/2000/svg">
  <path fill-rule="evenodd" clip-rule="evenodd" d="M5 6C4.44772 6 4 6.44771 4 7V14V16C4 16.5523 4.44772 17 5 17C5.55228 17 6 16.5523 6 16V15L19 15C19.5523 15 20 14.5523 20 14C20 13.4477 19.5523 13 19 13L6 13V7C6 6.44772 5.55228 6 5 6ZM8 12C7.44772 12 7 11.5523 7 11C7 10.4477 7.44772 10 8 10C8.55228 10 9 10.4477 9 11C9 11.5523 8.55228 12 8 12ZM10 11C10 11.5523 10.4477 12 11 12L18 12C18.5523 12 19 11.5523 19 11C19 10.4477 18.5523 10 18 10L11 10C10.4477 10 10 10.4477 10 11Z" fill="#73819C"/>
</svg>
