<svg width="24" height="24" viewBox="0 0 24 24" fill="none" xmlns="http://www.w3.org/2000/svg">
  <path opacity="0.4" d="M12.02 2C6.21 2 2 6.74 2 12C2 13.68 2.49 15.41 3.35 16.99C3.51 17.25 3.53 17.58 3.42 17.89L2.75 20.13C2.6 20.67 3.06 21.07 3.57 20.91L5.59 20.31C6.14 20.13 6.57 20.36 7.081 20.67C8.541 21.53 10.36 21.97 12 21.97C16.96 21.97 22 18.14 22 11.97C22 6.65 17.7 2 12.02 2Z" fill="#00B1B9"/>
  <path fill-rule="evenodd" clip-rule="evenodd" d="M11.9841 13.2901C11.2742 13.2801 10.7042 12.7101 10.7042 12.0001C10.7042 11.3001 11.2842 10.7201 11.9841 10.7301C12.6941 10.7301 13.2642 11.3001 13.2642 12.0101C13.2642 12.7101 12.6941 13.2901 11.9841 13.2901ZM7.37375 13.2901C6.67375 13.2901 6.09375 12.7101 6.09375 12.0101C6.09375 11.3001 6.66375 10.7301 7.37375 10.7301C8.08375 10.7301 8.65375 11.3001 8.65375 12.0101C8.65375 12.7101 8.08375 13.2801 7.37375 13.2901ZM15.3139 12.0101C15.3139 12.7101 15.8839 13.2901 16.5939 13.2901C17.3039 13.2901 17.8739 12.7101 17.8739 12.0101C17.8739 11.3001 17.3039 10.7301 16.5939 10.7301C15.8839 10.7301 15.3139 11.3001 15.3139 12.0101Z" fill="#00B1B9"/>
</svg>
