<svg width="25" height="24" viewBox="0 0 25 24" fill="none" xmlns="http://www.w3.org/2000/svg">
  <path opacity="0.4" d="M20.141 9.48924C20.141 9.55724 19.6081 16.298 19.3037 19.1349C19.113 20.8758 17.9907 21.9318 16.3072 21.9618C15.0137 21.9908 13.7475 22.0008 12.5016 22.0008C11.179 22.0008 9.88546 21.9908 8.62989 21.9618C7.00281 21.9228 5.87952 20.8458 5.69862 19.1349C5.38546 16.288 4.86223 9.55724 4.8525 9.48924C4.84277 9.28425 4.90891 9.08925 5.04312 8.93126C5.17539 8.78526 5.36601 8.69727 5.56635 8.69727H19.4369C19.6363 8.69727 19.8172 8.78526 19.9601 8.93126C20.0934 9.08925 20.1605 9.28425 20.141 9.48924Z" fill="#00B1B9"/>
  <path d="M21.5 5.97686C21.5 5.56588 21.1761 5.24389 20.7871 5.24389H17.8714C17.2781 5.24389 16.7627 4.8219 16.6304 4.22692L16.467 3.49795C16.2385 2.61698 15.4498 2 14.5647 2H10.4362C9.5415 2 8.76054 2.61698 8.52323 3.54595L8.37054 4.22792C8.2373 4.8219 7.72185 5.24389 7.12957 5.24389H4.21385C3.82386 5.24389 3.5 5.56588 3.5 5.97686V6.35685C3.5 6.75783 3.82386 7.08982 4.21385 7.08982H20.7871C21.1761 7.08982 21.5 6.75783 21.5 6.35685V5.97686Z" fill="#00B1B9"/>
</svg>
