<svg width="18" height="16" viewBox="0 0 18 16" fill="none" xmlns="http://www.w3.org/2000/svg">
    <path d="M12.3516 7.09266C13.8691 7.09266 15.0991 5.86266 15.0991 4.34516C15.0991 2.82849 13.8691 1.59766 12.3516 1.59766" stroke="#73819C" stroke-width="1.2" stroke-linecap="round" stroke-linejoin="round"/>
    <path d="M13.6133 10.0781C14.0666 10.109 14.5166 10.174 14.9608 10.2723C15.5766 10.3948 16.3183 10.6473 16.5816 11.1998C16.7499 11.554 16.7499 11.9665 16.5816 12.3206C16.3191 12.8731 15.5766 13.1256 14.9608 13.2523" stroke="#73819C" stroke-width="1.2" stroke-linecap="round" stroke-linejoin="round"/>
    <path fill-rule="evenodd" clip-rule="evenodd" d="M6.9938 10.6719C10.0688 10.6719 12.6955 11.1377 12.6955 12.9985C12.6955 14.8602 10.0855 15.3419 6.9938 15.3419C3.9188 15.3419 1.29297 14.8769 1.29297 13.0152C1.29297 11.1535 3.90214 10.6719 6.9938 10.6719Z" stroke="#73819C" stroke-width="1.2" stroke-linecap="round" stroke-linejoin="round"/>
    <path fill-rule="evenodd" clip-rule="evenodd" d="M6.99318 8.01453C4.96484 8.01453 3.33984 6.3887 3.33984 4.36036C3.33984 2.33286 4.96484 0.707031 6.99318 0.707031C9.02151 0.707031 10.6473 2.33286 10.6473 4.36036C10.6473 6.3887 9.02151 8.01453 6.99318 8.01453Z" stroke="#73819C" stroke-width="1.2" stroke-linecap="round" stroke-linejoin="round"/>
</svg>
