<svg width="24" height="24" viewBox="0 0 24 24" fill="none" xmlns="http://www.w3.org/2000/svg">
  <path d="M9.34933 14.8594C5.38553 14.8594 2 15.4717 2 17.919C2 20.3682 5.364 21.0016 9.34933 21.0016C13.3131 21.0016 16.6987 20.3893 16.6987 17.942C16.6987 15.4928 13.3347 14.8594 9.34933 14.8594Z" fill="#73819C"/>
  <path d="M9.3474 12.5248C12.047 12.5248 14.2104 10.4062 14.2104 7.76241C14.2104 5.11865 12.047 3 9.3474 3C6.64876 3 4.48438 5.11865 4.48438 7.76241C4.48438 10.4062 6.64876 12.5248 9.3474 12.5248Z" fill="#73819C"/>
  <path d="M16.1747 7.8502C16.1747 9.19651 15.7618 10.4528 15.0378 11.4963C14.9624 11.6036 15.029 11.7483 15.1601 11.7713C15.3421 11.801 15.529 11.8192 15.7198 11.823C17.618 11.8719 19.3215 10.6751 19.7922 8.87263C20.4898 6.1982 18.4429 3.79688 15.8352 3.79688C15.5524 3.79688 15.2814 3.82562 15.0172 3.87832C14.981 3.88599 14.9419 3.90324 14.9223 3.9339C14.8969 3.97319 14.9154 4.02398 14.9409 4.05751C15.7246 5.13361 16.1747 6.44351 16.1747 7.8502Z" fill="#73819C"/>
  <path d="M21.7785 15.1678C21.4311 14.4424 20.5926 13.9451 19.3166 13.7007C18.7149 13.557 17.0847 13.3529 15.5691 13.3816C15.5465 13.3845 15.5338 13.3998 15.5319 13.4094C15.5289 13.4248 15.5358 13.4478 15.5651 13.464C16.2657 13.8033 18.9732 15.2789 18.6327 18.3913C18.618 18.5273 18.7286 18.6423 18.8665 18.6232C19.5329 18.5302 21.2472 18.169 21.7785 17.0459C22.073 16.4518 22.073 15.7619 21.7785 15.1678Z" fill="#73819C"/>
</svg>
