<svg width="18" height="18" viewBox="0 0 18 18" fill="none" xmlns="http://www.w3.org/2000/svg">
    <path fill-rule="evenodd" clip-rule="evenodd" d="M11.1242 1.04194C9.9465 -0.125392 8.0384 -0.127788 6.86683 1.0516L6.86614 1.0523L6.26727 1.65095C6.12596 1.79221 5.93566 1.87206 5.73711 1.87206H4.87846C3.21887 1.87206 1.86922 3.2197 1.86922 4.87956V5.72956C1.86922 5.93882 1.78838 6.12822 1.64893 6.26761L1.64869 6.26785L1.04013 6.87702L1.03902 6.87814C-0.131198 8.05693 -0.12071 9.96518 1.04886 11.1333L1.05119 11.1356L1.64655 11.7225C1.79165 11.8746 1.86922 12.0667 1.86922 12.2637V13.1212C1.86922 14.7807 3.21844 16.1304 4.87846 16.1304H5.73711C5.93736 16.1304 6.12717 16.2098 6.26727 16.3498L6.87558 16.9588L6.87557 16.9588L6.87886 16.962C7.46855 17.5415 8.23818 17.8296 9.00496 17.8296C9.77229 17.8296 10.5437 17.541 11.1344 16.9495L11.7343 16.3498C11.8744 16.2098 12.0642 16.1304 12.2645 16.1304H13.1231C14.7831 16.1304 16.1324 14.7807 16.1324 13.1212V12.2637C16.1324 12.0636 16.2121 11.8737 16.3526 11.7332L16.9442 11.1419L16.9451 11.141L16.9525 11.1338C16.958 11.1284 16.967 11.1196 16.9775 11.1084C17.5329 10.5416 17.8421 9.78284 17.833 8.98487C17.8322 8.18972 17.5232 7.42859 16.9514 6.86614L16.9497 6.8645L16.3526 6.26761C16.2118 6.12684 16.1324 5.93688 16.1324 5.73873V4.87956C16.1324 3.2197 14.7827 1.87206 13.1231 1.87206H12.2645C12.0659 1.87206 11.8756 1.79221 11.7343 1.65095L11.7341 1.6507L11.1255 1.0432L11.1242 1.04194ZM16.2459 7.57485L16.5994 7.22123L16.249 7.57796C16.6258 7.94797 16.833 8.45158 16.833 8.9879H16.8329L16.833 8.99415C16.8397 9.52587 16.6341 10.0319 16.2598 10.4121L16.2528 10.4192L16.2514 10.4207L16.2495 10.4226L16.2375 10.4343L15.6457 11.0259C15.3194 11.3521 15.1324 11.7956 15.1324 12.2637V13.1212C15.1324 14.2285 14.2308 15.1304 13.1231 15.1304H12.2645C11.7978 15.1304 11.3541 15.316 11.0273 15.6426L10.4271 16.2426L10.4268 16.2429C10.0338 16.6365 9.52142 16.8296 9.00496 16.8296C8.4886 16.8296 7.97509 16.6364 7.58129 16.2503L6.97449 15.6429L6.97425 15.6426C6.64751 15.316 6.20376 15.1304 5.73711 15.1304H4.87846C3.77081 15.1304 2.86922 14.2285 2.86922 13.1212V12.2637C2.86922 11.7941 2.68137 11.3545 2.36206 11.0239L2.36216 11.0238L2.35343 11.0151L1.75554 10.4258L1.75441 10.4247C0.974569 9.64454 0.968601 8.36904 1.7482 7.58317L1.74871 7.58266L2.35591 6.97485C2.6833 6.64758 2.86922 6.20364 2.86922 5.72956V4.87956C2.86922 3.77276 3.77038 2.87206 4.87846 2.87206H5.73711C6.20546 2.87206 6.64873 2.68359 6.97425 2.35818L7.57447 1.75818L7.57447 1.75818L7.57582 1.75682C8.35481 0.972127 9.63019 0.969751 10.4196 1.75154L10.4203 1.75218L11.0273 2.35818L11.0276 2.35842C11.3531 2.68368 11.7962 2.87206 12.2645 2.87206H13.1231C14.2312 2.87206 15.1324 3.77276 15.1324 4.87956V5.73873C15.1324 6.20558 15.3197 6.64896 15.6457 6.97485L16.2459 7.57485ZM8.88734 11.7042L12.8457 7.74591C13.129 7.46258 13.129 7.00425 12.8457 6.71258C12.5623 6.42925 12.0957 6.42925 11.8123 6.71258L8.37067 10.1542L6.91234 8.69591C6.629 8.41258 6.16234 8.41258 5.879 8.69591C5.59567 8.97925 5.59567 9.43758 5.879 9.72925L7.86234 11.7042C8.004 11.8459 8.18734 11.9126 8.37067 11.9126C8.56234 11.9126 8.74567 11.8459 8.88734 11.7042Z" fill="#00B1B9"/>
</svg>
