<svg width="18" height="18" viewBox="0 0 18 18" fill="none" xmlns="http://www.w3.org/2000/svg">
    <path fill-rule="evenodd" clip-rule="evenodd" d="M16.0006 6.62245L16.6008 7.22245C17.076 7.68912 17.3344 8.32245 17.3344 8.98912C17.3428 9.65578 17.0843 10.29 16.6175 10.7641C16.612 10.7702 16.6064 10.7756 16.6008 10.781C16.5981 10.7837 16.5953 10.7863 16.5925 10.7891L16.0006 11.3808C15.7672 11.6141 15.6338 11.9308 15.6338 12.2649V13.1225C15.6338 14.5058 14.5084 15.6316 13.1246 15.6316H12.2659C11.9325 15.6316 11.6157 15.7641 11.3823 15.9974L10.7821 16.5974C10.2902 17.0899 9.64832 17.3308 9.00642 17.3308C8.36452 17.3308 7.72262 17.09 7.23078 16.6066L6.62222 15.9974C6.38881 15.7641 6.07202 15.6316 5.73857 15.6316H4.87993C3.49609 15.6316 2.37068 14.5058 2.37068 13.1225V12.2649C2.37068 11.9308 2.2373 11.6141 2.00388 11.3724L1.40367 10.7808C0.428312 9.80662 0.419976 8.21412 1.39533 7.23162L2.00388 6.62245C2.2373 6.38912 2.37068 6.07245 2.37068 5.73078V4.88078C2.37068 3.49745 3.49609 2.37328 4.87993 2.37328H5.73857C6.07202 2.37328 6.38881 2.23912 6.62222 2.00578L7.22244 1.40578C8.19779 0.423284 9.79004 0.423284 10.7737 1.39828L11.3823 2.00578C11.6157 2.23912 11.9325 2.37328 12.2659 2.37328H13.1246C14.5084 2.37328 15.6338 3.49745 15.6338 4.88078V5.73995C15.6338 6.07245 15.7672 6.38912 16.0006 6.62245ZM8.8888 11.7055L12.8471 7.74714C13.1305 7.4638 13.1305 7.00547 12.8471 6.7138C12.5638 6.43047 12.0971 6.43047 11.8138 6.7138L8.37214 10.1555L6.9138 8.69713C6.63047 8.4138 6.1638 8.4138 5.88047 8.69713C5.59714 8.98047 5.59714 9.4388 5.88047 9.73047L7.8638 11.7055C8.00547 11.8471 8.1888 11.9138 8.37214 11.9138C8.5638 11.9138 8.74714 11.8471 8.8888 11.7055Z" fill="#73819C"/>
</svg>
