<svg width="18" height="16" viewBox="0 0 18 16" fill="none" xmlns="http://www.w3.org/2000/svg">
    <path fill-rule="evenodd" clip-rule="evenodd" d="M5.50987 0.083252H12.4898C15.1647 0.083252 17.3332 2.30088 17.3332 5.03637V5.65437L17.3333 5.66858L17.3332 5.6828V10.0995L17.3333 10.1137L17.3332 10.1279V10.9635C17.3332 13.699 15.1647 15.9166 12.4898 15.9166H5.50987C2.83499 15.9166 0.666504 13.699 0.666504 10.9635V5.03637C0.666504 2.30088 2.83499 0.083252 5.50987 0.083252ZM16.1219 5.03636V5.0492H13.4585L13.306 5.0535C11.8416 5.13528 10.6788 6.37419 10.6788 7.89115C10.6797 9.46079 11.9235 10.7321 13.4581 10.7331H16.1219V10.9635C16.1219 13.0148 14.4957 14.6778 12.4898 14.6778H5.50986C3.50398 14.6778 1.87781 13.0148 1.87781 10.9635V5.03636C1.87781 2.98502 3.50398 1.322 5.50986 1.322H12.4898C14.4957 1.322 16.1219 2.98502 16.1219 5.03636ZM13.4589 6.28796H16.1219V9.49433H13.4585L13.336 9.48944C12.5272 9.42508 11.8906 8.73418 11.8901 7.89077C11.8901 7.00609 12.5923 6.28851 13.4589 6.28796ZM14.434 7.84028C14.434 7.49821 14.1628 7.2209 13.8283 7.2209H13.5766L13.4944 7.22655C13.1988 7.26757 12.9709 7.52671 12.9709 7.84028C12.9709 8.18236 13.2421 8.45966 13.5766 8.45966H13.8283L13.9105 8.45401C14.2061 8.41299 14.434 8.15385 14.434 7.84028ZM9.90039 4.45045C9.90039 4.10837 9.62923 3.83106 9.29474 3.83106H4.93485L4.85267 3.83672C4.55705 3.87773 4.3292 4.13688 4.3292 4.45045C4.3292 4.79252 4.60036 5.06983 4.93485 5.06983H9.29474L9.37692 5.06417C9.67254 5.02316 9.90039 4.76401 9.90039 4.45045Z" fill="#868E96"/>
</svg>
